HIERARCHY
ROOT Model_Hips
{
	OFFSET 0.000000 96.915077 0.000000
	CHANNELS 6 Xposition Yposition Zposition Xrotation Yrotation Zrotation
	JOINT Model_Spine
	{
		OFFSET 0.000000 11.137703 -1.289900
		CHANNELS 3 Xrotation Yrotation Zrotation
		JOINT Model_Spine1
		{
			OFFSET 0.000000 12.993942 -1.504922
			CHANNELS 3 Xrotation Yrotation Zrotation
			JOINT Model_Spine2
			{
				OFFSET 0.000000 14.850220 -1.719911
				CHANNELS 3 Xrotation Yrotation Zrotation
				JOINT Model_Neck
				{
					OFFSET 0.000000 16.706543 -1.934903
					CHANNELS 3 Xrotation Yrotation Zrotation
					JOINT Model_Head
					{
						OFFSET 0.000000 10.471298 2.002100
						CHANNELS 3 Xrotation Yrotation Zrotation
						JOINT Model_HeadTop_End
						{
							OFFSET 0.000000 20.842606 3.985100
							CHANNELS 3 Xrotation Yrotation Zrotation
							End Site
							{
								OFFSET 0.000000 21.220154 0.000000
							}
						}
					}
				}
				JOINT Model_LeftShoulder
				{
					OFFSET 7.008500 14.768600 -1.919946
					CHANNELS 3 Xrotation Yrotation Zrotation
					JOINT Model_LeftArm
					{
						OFFSET 14.126271 -3.718048 0.029937
						CHANNELS 3 Xrotation Yrotation Zrotation
						JOINT Model_LeftForeArm
						{
							OFFSET 28.282801 0.000000 0.000000
							CHANNELS 3 Xrotation Yrotation Zrotation
							JOINT Model_LeftHand
							{
								OFFSET 26.204689 0.000000 0.000000
								CHANNELS 3 Xrotation Yrotation Zrotation
								End Site
								{
									OFFSET 26.204704 0.000000 0.000000
								}
							}
						}
					}
				}
				JOINT Model_RightShoulder
				{
					OFFSET -7.008500 14.768555 -1.949840
					CHANNELS 3 Xrotation Yrotation Zrotation
					JOINT Model_RightArm
					{
						OFFSET -14.126281 -3.718018 -0.029932
						CHANNELS 3 Xrotation Yrotation Zrotation
						JOINT Model_RightForeArm
						{
							OFFSET -28.283798 0.000000 -0.000001
							CHANNELS 3 Xrotation Yrotation Zrotation
							JOINT Model_RightHand
							{
								OFFSET -26.204193 0.000000 -0.000001
								CHANNELS 3 Xrotation Yrotation Zrotation
								End Site
								{
									OFFSET -26.204208 0.000000 -0.000001
								}
							}
						}
					}
				}
			}
		}
	}
	JOINT Model_LeftUpLeg
	{
		OFFSET 8.327700 -6.193199 -0.402800
		CHANNELS 3 Xrotation Yrotation Zrotation
		JOINT Model_LeftLeg
		{
			OFFSET 0.735802 -42.108742 -0.610721
			CHANNELS 3 Xrotation Yrotation Zrotation
			JOINT Model_LeftFoot
			{
				OFFSET -0.735806 -36.833748 -0.172876
				CHANNELS 3 Xrotation Yrotation Zrotation
				JOINT Model_LeftToeBase
				{
					OFFSET -0.565857 -11.977769 16.297714
					CHANNELS 3 Xrotation Yrotation Zrotation
					JOINT Model_LeftToe_End
					{
						OFFSET -0.111712 -0.312793 7.857784
						CHANNELS 3 Xrotation Yrotation Zrotation
						End Site
						{
							OFFSET -0.111712 -0.312793 7.857784
						}
					}
				}
			}
		}
	}
	JOINT Model_RightUpLeg
	{
		OFFSET -8.327700 -6.193199 -0.516500
		CHANNELS 3 Xrotation Yrotation Zrotation
		JOINT Model_RightLeg
		{
			OFFSET -0.735785 -42.108738 -0.434061
			CHANNELS 3 Xrotation Yrotation Zrotation
			JOINT Model_RightFoot
			{
				OFFSET 0.735776 -36.833748 -0.021630
				CHANNELS 3 Xrotation Yrotation Zrotation
				JOINT Model_RightToeBase
				{
					OFFSET 0.565817 -11.977745 15.903093
					CHANNELS 3 Xrotation Yrotation Zrotation
					JOINT Model_RightToe_End
					{
						OFFSET 0.111702 -0.312791 7.811342
						CHANNELS 3 Xrotation Yrotation Zrotation
						End Site
						{
							OFFSET 0.111702 -0.312791 7.811342
						}
					}
				}
			}
		}
	}
}
MOTION
Frames: 6
Frame Time: 0.016667
-1.308850 86.122154 82.782600 -4.554303 38.050400 9.262410 16.424378 7.428468 -4.342332 2.578387 2.168452 -1.763873 2.600635 2.125907 -1.807096 -5.063614 2.162368 2.292524 -5.063624 2.162379 2.292516 -0.000000 0.000001 0.000001 -0.255445 2.078207 -5.724465 15.958064 -23.621168 -43.344268 0.000019 -74.648476 0.000047 -0.000002 -0.000001 0.000000 -2.049073 -12.624161 7.672743 18.919397 43.924766 34.176498 0.000000 63.815345 0.000022 -0.000000 -0.000003 -0.000000 -29.775219 9.068141 0.423556 73.474100 10.160121 10.166768 -22.085120 0.090435 2.707143 -13.862723 0.471477 -4.723672 -0.000000 0.000005 0.000000 -21.586536 -15.722607 -3.590073 62.857008 -1.854517 -7.142089 -40.107906 1.039169 -2.898691 -0.152283 0.000004 -0.000001 0.000000 -0.000001 0.000000 
-1.168706 86.277138 85.744919 -3.707341 36.574741 9.525827 16.171485 8.732598 -5.281516 2.608524 2.558745 -2.067257 2.637690 2.513379 -2.114900 -5.095904 2.063846 2.332967 -5.095912 2.063841 2.332971 -0.000000 0.000000 0.000000 -0.239044 1.946053 -5.747894 19.094224 -22.084242 -43.584045 -0.000006 -73.950404 -0.000009 0.000000 0.000000 -0.000002 -2.180019 -12.581401 7.044130 16.891965 45.356633 35.028191 -0.000014 64.530835 0.000018 0.000001 -0.000002 0.000000 -31.432114 11.191621 -1.894992 70.625324 9.939914 10.191656 -22.742377 -0.019987 2.185581 -11.087439 0.142628 -2.626480 0.000000 0.000005 0.000000 -19.392066 -15.038376 -3.362940 61.610806 -0.849614 -6.063583 -41.424172 1.750698 -4.505320 -0.578500 0.000006 -0.000003 0.000000 -0.000002 0.000000 
-0.995101 86.684975 88.766006 -2.920018 35.022362 9.672255 15.937584 10.168253 -6.151223 2.663245 2.979420 -2.422072 2.701750 2.929361 -2.472290 -5.235571 1.939502 2.414773 -5.235573 1.939500 2.414774 0.000001 0.000000 -0.000000 -0.306160 2.055365 -5.679876 22.194456 -20.658969 -43.694923 -0.000031 -74.034599 -0.000031 0.000001 0.000001 -0.000003 -2.279426 -12.607680 6.662919 15.541117 46.777691 35.401540 0.000020 65.383420 -0.000008 0.000002 0.000003 -0.000001 -32.477976 13.368072 -3.970869 66.293994 9.723421 10.199393 -22.060840 0.014242 1.957970 -7.740540 0.049096 -1.559468 -0.000001 0.000001 -0.000001 -16.770102 -14.518134 -2.986516 59.500189 0.379944 -5.171673 -41.820497 2.435021 -6.101754 -1.704181 0.000002 0.000000 -0.000000 -0.000002 0.000000 
-0.800542 87.302734 91.886322 -2.290535 33.549370 9.679703 15.732832 11.659806 -6.876083 2.734865 3.407300 -2.741534 2.783148 3.353556 -2.792452 -5.400181 1.810007 2.442267 -5.400181 1.810014 2.442267 -0.000000 0.000003 -0.000001 -0.442725 2.364681 -5.612965 25.096825 -19.253484 -43.789231 -0.000006 -74.741790 0.000021 -0.000002 -0.000000 0.000002 -2.324775 -12.581132 6.382029 14.773363 48.043250 35.463858 0.000026 66.310974 0.000000 -0.000001 0.000000 -0.000001 -32.807974 15.442701 -5.785406 60.546738 9.581990 10.181316 -19.989845 0.211601 1.859953 -4.011352 0.049010 -1.574701 -0.000000 0.000003 -0.000000 -13.883842 -14.469715 -2.305623 56.954427 1.643691 -4.818639 -41.055345 2.975440 -7.539065 -3.430757 0.000001 0.000005 0.000000 0.000001 0.000000 
-0.604970 88.071526 95.143791 -1.836068 32.295911 9.520888 15.494641 13.142567 -7.423094 2.802376 3.823933 -2.961035 2.858528 3.769760 -3.010978 -5.504220 1.681746 2.367888 -5.504216 1.681756 2.367886 0.000001 0.000002 -0.000001 -0.608269 2.742362 -5.572110 27.624972 -17.743619 -44.011652 0.000021 -75.806863 0.000025 -0.000003 0.000003 0.000001 -2.321001 -12.453515 6.089590 14.367545 48.971845 35.483451 -0.000022 67.368799 0.000036 0.000003 -0.000001 -0.000001 -32.357895 17.357795 -7.355420 53.462524 9.474020 10.109496 -16.454995 0.444273 1.645591 -1.484046 0.034398 -1.326894 0.000000 -0.000000 0.000000 -10.734543 -14.996054 -1.219716 54.124478 2.926812 -5.063060 -39.185711 3.327367 -8.843488 -6.402269 -0.000004 0.000000 0.000000 0.000001 0.000000 
-0.425982 88.900612 98.562996 -1.540467 31.357429 9.170988 15.132262 14.565517 -7.773541 2.855758 4.212795 -3.055598 2.916135 4.162824 -3.102319 -5.505643 1.547928 2.206093 -5.505641 1.547926 2.206091 0.000000 -0.000001 -0.000000 -0.755621 3.037615 -5.513796 29.668501 -16.059033 -44.451797 0.000027 -76.970167 0.000048 0.000000 -0.000001 -0.000001 -2.290563 -12.264422 5.779778 14.142096 49.471856 35.607306 0.000009 68.667908 0.000007 0.000001 0.000001 -0.000001 -31.415329 19.259282 -8.750722 46.503005 9.550378 10.138483 -14.559026 0.531835 0.819094 0.000001 0.000012 -0.000002 0.000000 0.000000 -0.000000 -7.394586 -15.975915 0.295749 51.234038 3.984292 -5.686676 -36.285872 3.699157 -9.988489 -10.750618 -0.000007 0.000001 0.000000 0.000000 0.000000 
